<?xml version="1.0" standalone="no"?><!DOCTYPE svg PUBLIC "-//W3C//DTD SVG 1.1//EN"
        "http://www.w3.org/Graphics/SVG/1.1/DTD/svg11.dtd">
<svg t="1658552166969" class="icon" viewBox="0 0 1024 1024" version="1.1" xmlns="http://www.w3.org/2000/svg"
     p-id="21911" width="128" height="128" xmlns:xlink="http://www.w3.org/1999/xlink">
    <defs>
        <style type="text/css"></style>
    </defs>
    <path d="M0 0h1024v1024H0V0z" fill="#202425" opacity=".01" p-id="21912"></path>
    <path d="M238.933333 51.2A187.733333 187.733333 0 0 0 51.2 238.933333v136.533334a51.2 51.2 0 0 0 102.4 0V238.933333A85.333333 85.333333 0 0 1 238.933333 153.6h136.533334a51.2 51.2 0 0 0 0-102.4H238.933333z m546.133334 0A187.733333 187.733333 0 0 1 972.8 238.933333v136.533334a51.2 51.2 0 0 1-102.4 0V238.933333A85.333333 85.333333 0 0 0 785.066667 153.6h-136.533334a51.2 51.2 0 0 1 0-102.4h136.533334zM51.2 785.066667A187.733333 187.733333 0 0 0 238.933333 972.8h136.533334a51.2 51.2 0 0 0 0-102.4H238.933333A85.333333 85.333333 0 0 1 153.6 785.066667v-136.533334a51.2 51.2 0 0 0-102.4 0v136.533334zM785.066667 972.8a187.733333 187.733333 0 0 0 187.733333-187.733333v-136.533334a51.2 51.2 0 0 0-102.4 0v136.533334a85.333333 85.333333 0 0 1-85.333333 85.333333h-136.533334a51.2 51.2 0 0 0 0 102.4h136.533334z"
          fill="#FF7744" p-id="21913"></path>
    <path d="M238.933333 375.466667a136.533333 136.533333 0 0 1 136.533334-136.533334h273.066666a136.533333 136.533333 0 0 1 136.533334 136.533334v102.4a68.266667 68.266667 0 0 1-68.266667 68.266666H307.2a68.266667 68.266667 0 0 1-68.266667-68.266666v-102.4z"
          fill="#FFAA44" p-id="21914"></path>
    <path d="M136.533333 460.8a51.2 51.2 0 0 0 0 102.4h102.4V648.533333a136.533333 136.533333 0 0 0 136.533334 136.533334h273.066666a136.533333 136.533333 0 0 0 136.533334-136.533334v-85.333333h102.4a51.2 51.2 0 0 0 0-102.4H136.533333z"
          fill="#FF7744" p-id="21915"></path>
</svg>